<svg width="34" height="34" viewBox="0 0 34 34" fill="none" xmlns="http://www.w3.org/2000/svg">
<g clip-path="url(#clip0_211_2332)">
<path d="M11.4856 6.08044C13.1273 6.08054 14.7294 6.58555 16.0745 7.52673C17.4197 8.46804 18.4426 9.80065 19.0052 11.3431C19.5676 12.8856 19.6424 14.5635 19.219 16.1498C18.7956 17.7361 17.8944 19.1543 16.638 20.2113L16.2151 20.5668L16.719 20.7943C18.7885 21.7309 20.5692 23.205 21.8763 25.0629L21.8811 25.0697L21.887 25.0765C21.9885 25.2066 22.0627 25.3564 22.1048 25.516C22.1468 25.6755 22.1553 25.8421 22.1311 26.0052C22.1069 26.1684 22.0497 26.3248 21.9632 26.4652C21.8766 26.6056 21.7631 26.7276 21.6282 26.8226C21.4934 26.9176 21.3403 26.9838 21.179 27.0179C21.0176 27.0521 20.8506 27.0531 20.6888 27.0209C20.5269 26.9886 20.3727 26.9238 20.2366 26.8304H20.2376C20.1015 26.737 19.985 26.6174 19.8968 26.4779L19.8929 26.4711L19.888 26.4642L19.7063 26.2142C18.7823 24.9789 17.5912 23.966 16.22 23.2533C14.7576 22.4933 13.1337 22.0961 11.4856 22.0961C9.83737 22.0961 8.2128 22.4932 6.75027 23.2533C5.28771 24.0135 4.02946 25.1152 3.08231 26.4642L3.08133 26.4652C2.97001 26.625 2.82144 26.7552 2.64871 26.8451C2.4759 26.935 2.28395 26.9824 2.08914 26.9818H2.08719C1.8373 26.9826 1.59323 26.9045 1.38992 26.7592L1.38797 26.7582L1.29324 26.684C1.08176 26.5009 0.939178 26.2491 0.8909 25.9711C0.842649 25.693 0.892163 25.4081 1.02957 25.1644L1.09402 25.0629C2.40109 23.205 4.18174 21.7309 6.25125 20.7943L6.75516 20.5668L6.33231 20.2113C5.07588 19.1543 4.17471 17.7361 3.75125 16.1498C3.32788 14.5635 3.40263 12.8856 3.96512 11.3431C4.52765 9.80065 5.55055 8.46804 6.89578 7.52673C8.24101 6.58546 9.84379 6.08044 11.4856 6.08044ZM22.1214 6.09021H22.1233C23.7661 6.08551 25.3706 6.58799 26.718 7.52771C28.0654 8.46749 29.0904 9.79996 29.6536 11.3431C30.2166 12.8862 30.2908 14.5652 29.8655 16.1517C29.44 17.7385 28.5354 19.1559 27.2757 20.2103L26.8509 20.5658L27.3557 20.7943C29.4253 21.7308 31.2059 23.205 32.513 25.0629L32.5149 25.0648C32.6077 25.1946 32.6737 25.3419 32.7093 25.4974C32.7448 25.6531 32.7493 25.8147 32.722 25.972C32.6946 26.1294 32.636 26.2798 32.5501 26.4144C32.4641 26.549 32.3522 26.6652 32.221 26.7562L32.2171 26.7592C32.0138 26.9045 31.7697 26.9816 31.5198 26.9808C31.3247 26.9795 31.1323 26.9322 30.9593 26.8422C30.786 26.7519 30.6367 26.6216 30.5237 26.4623C29.5747 25.1162 28.3165 24.0172 26.8548 23.2582C25.4841 22.5464 23.972 22.1528 22.4309 22.1049L22.1223 22.1L22.0013 22.0941C21.7226 22.0664 21.4608 21.9432 21.261 21.7435C21.0326 21.5151 20.9036 21.2052 20.9036 20.8822C20.9036 20.5591 21.0326 20.2493 21.261 20.0209C21.4894 19.7925 21.7993 19.6644 22.1223 19.6644C23.5991 19.6643 25.0156 19.0768 26.0598 18.0326C27.1039 16.9883 27.6907 15.5718 27.6907 14.0951C27.6906 12.6184 27.1041 11.2018 26.0598 10.1576C25.0807 9.17847 23.7742 8.60177 22.3977 8.53357L22.1223 8.52673C21.6132 8.5258 21.1061 8.59605 20.6165 8.73572L20.4954 8.76599C20.3769 8.78884 20.2555 8.79354 20.135 8.78064C19.9744 8.76343 19.8186 8.71501 19.677 8.63708C19.5357 8.55923 19.4112 8.4539 19.3108 8.32751C19.2104 8.20097 19.1358 8.0553 19.0921 7.89978C19.0483 7.74427 19.0362 7.58161 19.0559 7.42126C19.0756 7.26098 19.1272 7.10643 19.2073 6.96619C19.2874 6.82589 19.3946 6.70234 19.5227 6.60388C19.6508 6.50554 19.7973 6.43327 19.9534 6.39197L19.9593 6.39099C20.6624 6.1908 21.3903 6.089 22.1214 6.09021ZM12.5716 8.63416C11.4914 8.41929 10.3713 8.52909 9.35379 8.95056C8.33641 9.37203 7.4666 10.0857 6.85477 11.0013C6.24295 11.917 5.91636 12.9939 5.91629 14.0951C5.91629 15.5718 6.5031 16.9883 7.54715 18.0326C8.59146 19.0769 10.0088 19.6644 11.4856 19.6644C12.5866 19.6643 13.6629 19.3375 14.5784 18.726C15.4941 18.1141 16.2087 17.2435 16.6302 16.226C17.0514 15.2086 17.1614 14.0891 16.9466 13.0092C16.7317 11.929 16.2019 10.9364 15.4231 10.1576C14.6444 9.37884 13.6517 8.84903 12.5716 8.63416Z" fill="#4CAF4F" stroke="#4CAF4F" stroke-width="0.696069"/>
</g>
<defs>
<clipPath id="clip0_211_2332">
<rect width="33.4113" height="33.4113" fill="white"/>
</clipPath>
</defs>
</svg>
